<svg width="53" height="52" viewBox="0 0 53 52" fill="none" xmlns="http://www.w3.org/2000/svg">
<path d="M30.7369 21.0587V26.7291C30.7369 26.7291 30.6345 26.7291 30.5833 26.7291C28.0361 26.7291 25.8601 28.2906 24.9385 30.505C24.6441 31.2218 24.4777 32.0027 24.4777 32.8219C24.4777 33.6411 24.6569 34.4859 24.9641 35.2283H16.5673C16.3113 35.2283 16.0809 35.1259 15.9017 34.9467C15.7225 34.7675 15.6201 34.5243 15.6201 34.2811V17.2827C15.6201 17.0267 15.7225 16.7962 15.9017 16.617C16.0809 16.4378 16.3241 16.3354 16.5673 16.3354H26.0137L30.7369 21.0587Z" stroke="#525050" stroke-width="2" stroke-linecap="round" stroke-linejoin="round"/>
<path d="M19.4092 16.3361V13.5073C19.4092 13.2513 19.5116 13.0209 19.6908 12.8417C19.87 12.6625 20.1132 12.5601 20.3564 12.5601H29.8028L34.526 17.2833V28.1633" stroke="#525050" stroke-width="2" stroke-linecap="round" stroke-linejoin="round"/>
<path d="M20.3564 26.7295H26.0268" stroke="#525050" stroke-linecap="round" stroke-linejoin="round"/>
<path d="M20.3564 30.5059H24.9516" stroke="#525050" stroke-linecap="round" stroke-linejoin="round"/>
<path d="M36.6759 32.8223C36.6759 34.6271 35.8951 36.2399 34.6535 37.3535C34.2695 36.5983 33.6807 35.9711 32.9639 35.5231C32.2471 35.0751 31.4151 34.8447 30.5703 34.8447C31.9783 34.8447 33.1047 33.7055 33.1047 32.3103C33.1047 32.0031 33.0535 31.7087 32.9511 31.4399C32.6183 30.5055 31.7479 29.8399 30.7239 29.7759C30.6727 29.7759 30.6215 29.7759 30.5703 29.7759C29.1623 29.7759 28.0359 30.9151 28.0359 32.3231C28.0359 33.7311 29.1495 34.8447 30.5319 34.8575C29.9303 34.8575 29.3287 34.9855 28.7783 35.2287C28.5735 35.3183 28.3687 35.4207 28.1767 35.5359C27.4599 35.9839 26.8711 36.6111 26.4871 37.3663C25.8343 36.7775 25.3095 36.0479 24.9639 35.2287C24.6439 34.4863 24.4775 33.6799 24.4775 32.8223C24.4775 31.9647 24.6439 31.2223 24.9383 30.5055C25.8471 28.2911 28.0359 26.7295 30.5831 26.7295C30.6343 26.7295 30.6855 26.7295 30.7367 26.7295C32.1703 26.7679 33.4887 27.3055 34.5127 28.1631C35.8311 29.2767 36.6759 30.9535 36.6759 32.8223Z" stroke="#525050" stroke-width="2" stroke-linecap="round" stroke-linejoin="round"/>
<path d="M34.6537 37.3662C33.5785 38.339 32.1449 38.9278 30.5705 38.9278C28.9961 38.9278 27.5753 38.339 26.4873 37.3662C26.8713 36.611 27.4601 35.9838 28.1769 35.5358C28.3689 35.4206 28.5737 35.3182 28.7785 35.2286C29.3289 34.9854 29.9305 34.8702 30.5321 34.8574C30.5449 34.8574 30.5577 34.8574 30.5705 34.8574C31.4153 34.8574 32.2473 35.0878 32.9641 35.5358C33.6809 35.9838 34.2697 36.611 34.6537 37.3662Z" stroke="#525050" stroke-width="2" stroke-linecap="round" stroke-linejoin="round"/>
<path d="M30.5833 34.8574C30.5833 34.8574 30.5577 34.8574 30.5449 34.8574C30.5577 34.8574 30.5705 34.8574 30.5833 34.8574Z" stroke="#525050" stroke-linecap="round" stroke-linejoin="round"/>
<path d="M33.1176 32.3231C33.1176 33.7311 31.9784 34.8575 30.5832 34.8575C30.5704 34.8575 30.5576 34.8575 30.5448 34.8575C29.1624 34.8319 28.0488 33.7055 28.0488 32.3231C28.0488 30.9407 29.188 29.7759 30.5832 29.7759C30.6344 29.7759 30.6856 29.7759 30.7368 29.7759C31.7608 29.8399 32.6312 30.5183 32.964 31.4399C33.0664 31.7087 33.1176 32.0031 33.1176 32.3103V32.3231Z" stroke="#525050" stroke-width="2" stroke-linecap="round" stroke-linejoin="round"/>
</svg>
