<svg width="52" height="52" viewBox="0 0 52 52" fill="none" xmlns="http://www.w3.org/2000/svg">
<path d="M21.5875 37H16C15.7348 37 15.4804 36.8946 15.2929 36.7071C15.1054 36.5196 15 36.2652 15 36V30.4125C14.9996 30.2827 15.0247 30.154 15.074 30.0339C15.1234 29.9138 15.1959 29.8045 15.2875 29.7125L30.2875 14.7125C30.3806 14.618 30.4915 14.543 30.6138 14.4918C30.7361 14.4405 30.8674 14.4142 31 14.4142C31.1326 14.4142 31.2639 14.4405 31.3862 14.4918C31.5085 14.543 31.6195 14.618 31.7125 14.7125L37.2875 20.2875C37.382 20.3806 37.457 20.4915 37.5082 20.6138C37.5595 20.7361 37.5858 20.8674 37.5858 21C37.5858 21.1326 37.5595 21.2639 37.5082 21.3862C37.457 21.5085 37.382 21.6195 37.2875 21.7125L22.2875 36.7125C22.1955 36.8041 22.0863 36.8766 21.9661 36.926C21.846 36.9753 21.7174 37.0005 21.5875 37V37Z" stroke="#525050" stroke-width="2" stroke-linecap="round" stroke-linejoin="round"/>
<path d="M27 18L34 25" stroke="#525050" stroke-width="2" stroke-linecap="round" stroke-linejoin="round"/>
</svg>
