<svg width="25" height="22" viewBox="0 0 25 22" fill="none" xmlns="http://www.w3.org/2000/svg">
    <path opacity="0.91"
        d="M9.08203 0.28125C8.55674 0.28125 8.0366 0.384713 7.5513 0.585732C7.066 0.786751 6.62504 1.08139 6.2536 1.45282C5.88217 1.82426 5.58753 2.26521 5.38651 2.75052C5.18549 3.23582 5.08203 3.75596 5.08203 4.28125C5.08203 4.80654 5.18549 5.32668 5.38651 5.81198C5.58753 6.29729 5.88217 6.73824 6.2536 7.10968C6.62504 7.48111 7.066 7.77575 7.5513 7.97677C8.0366 8.17779 8.55674 8.28125 9.08203 8.28125C10.1429 8.28125 11.1603 7.85982 11.9105 7.10968C12.6606 6.35953 13.082 5.34212 13.082 4.28125C13.082 3.22038 12.6606 2.20297 11.9105 1.45282C11.1603 0.702677 10.1429 0.28125 9.08203 0.28125ZM5.62891 9.11523C2.39129 10.4891 0.250614 13.6231 0.148438 17.1387C2.33822 19.642 5.54891 21.2305 9.13867 21.2305C11.1051 21.2305 12.9484 20.7389 14.582 19.8965C14.1385 19.3038 13.766 18.6545 13.4512 17.957C12.4631 15.7677 11.9554 13.1331 11.8945 10.5703L11.8887 10.3184L9.16797 14.5742L5.62891 9.11523ZM19.2031 9.30859C17.4584 9.30859 14.3438 11.252 14.3438 11.252C14.4538 15.8836 16.2926 21.0092 19.2031 20.9727C19.2063 20.9726 19.2097 20.9727 19.2129 20.9727C20.0309 20.9623 20.755 20.5355 21.3457 19.916C21.9364 19.2965 22.4219 18.4723 22.8203 17.5469C23.6172 15.6961 24.0625 13.4378 24.0625 11.5762V11.3086L23.8379 11.166C23.8379 11.166 23.1171 10.708 22.1953 10.25C21.2735 9.79195 20.1756 9.30859 19.207 9.30859H19.2031ZM19.2031 10.2793H19.207C19.8076 10.2793 20.8924 10.6882 21.7637 11.1211C22.4922 11.4831 22.8869 11.7349 23.0625 11.8438C23.0234 13.5057 22.6245 15.5394 21.9258 17.1621C21.5588 18.0145 21.1168 18.7488 20.6426 19.2461C20.1693 19.7425 19.6929 19.9928 19.2031 20V10.2793Z"
        fill="#070504" />
</svg>
