<svg width="23" height="25" viewBox="0 0 23 25" fill="none" xmlns="http://www.w3.org/2000/svg">
<path fill-rule="evenodd" clip-rule="evenodd" d="M11.8216 2.34585C11.6116 2.28469 11.3885 2.28469 11.1784 2.34585C11.118 2.36346 11.0118 2.4075 10.7858 2.57858C10.5482 2.75851 10.2572 3.01602 9.80392 3.41899L3.77836 8.775C3.03967 9.43163 2.83025 9.62967 2.68466 9.84863C2.54462 10.0593 2.44029 10.2916 2.37588 10.5362C2.30891 10.7906 2.30006 11.0785 2.30006 12.067V16.4726C2.30006 17.56 2.30069 18.318 2.34116 18.9111C2.38094 19.4942 2.45532 19.8337 2.56268 20.0927C2.91283 20.9381 3.58445 21.6098 4.42979 21.9599C4.68898 22.0673 5.02846 22.1417 5.6114 22.1815C6.20468 22.222 6.96263 22.2225 8.05001 22.2225H14.95C16.0373 22.2225 16.7953 22.222 17.3886 22.1815C17.9715 22.1417 18.311 22.0673 18.5702 21.9599C19.4155 21.6098 20.0871 20.9381 20.4373 20.0927C20.5446 19.8337 20.619 19.4942 20.6588 18.9111C20.6993 18.318 20.7 17.56 20.7 16.4726V12.067C20.7 11.0785 20.6911 10.7906 20.6241 10.5362C20.5597 10.2916 20.4554 10.0593 20.3153 9.84863C20.1697 9.62967 19.9603 9.43163 19.2217 8.775L13.1961 3.41899C12.7427 3.01602 12.4518 2.75851 12.2142 2.57858C11.9882 2.4075 11.882 2.36346 11.8216 2.34585ZM10.5353 0.137602C11.1654 -0.0458674 11.8346 -0.0458674 12.4647 0.137602C12.9018 0.264918 13.2642 0.488798 13.6025 0.744878C13.921 0.986054 14.2798 1.30493 14.6929 1.67214L20.7496 7.05598C20.7823 7.08496 20.8144 7.11355 20.8462 7.14177C21.4462 7.67447 21.8993 8.0769 22.2307 8.57533C22.5107 8.99667 22.7195 9.46132 22.8483 9.95063C23.0006 10.5294 23.0004 11.1355 23 11.9377C23 11.9803 23 12.0233 23 12.067V16.5134C23 17.5505 23 18.387 22.9535 19.0678C22.9057 19.7678 22.805 20.3868 22.5623 20.973C21.9786 22.3819 20.8592 23.5012 19.4504 24.0848C18.8642 24.3276 18.2452 24.4283 17.5451 24.4761C16.8643 24.5225 16.0278 24.5225 14.9908 24.5225H8.00917C6.97215 24.5225 6.13565 24.5225 5.45484 24.4761C4.7548 24.4283 4.13578 24.3276 3.54963 24.0848C2.14073 23.5012 1.02136 22.3818 0.437776 20.973C0.194979 20.3868 0.0942856 19.7678 0.046515 19.0678C6.68997e-05 18.387 7.85363e-05 17.5505 7.85363e-05 16.5134V12.067C7.85363e-05 12.0233 5.54896e-05 11.9803 4.39897e-05 11.9377C-0.000381507 11.1355 -0.000692097 10.5294 0.151705 9.95063C0.280538 9.46132 0.489204 8.99667 0.769296 8.57533C1.10063 8.0769 1.55383 7.67447 2.15375 7.14178C2.18553 7.11355 2.21772 7.08496 2.25033 7.05598L8.30714 1.67215C8.72022 1.30493 9.07893 0.986054 9.39752 0.744878C9.73573 0.488798 10.0982 0.264918 10.5353 0.137602Z" fill="white"/>
</svg>
