<svg width="63" height="63" viewBox="0 0 63 63" fill="none" xmlns="http://www.w3.org/2000/svg">
<path d="M31.5 61C47.7924 61 61 47.7924 61 31.5C61 15.2076 47.7924 2 31.5 2C15.2076 2 2 15.2076 2 31.5C2 47.7924 15.2076 61 31.5 61Z" stroke="#070504" stroke-width="4" stroke-linecap="round" stroke-linejoin="round"/>
<path d="M31.4987 41.3333C38.2872 41.3333 43.7904 35.8302 43.7904 29.0417C43.7904 22.2532 38.2872 16.75 31.4987 16.75C24.7102 16.75 19.207 22.2532 19.207 29.0417C19.207 35.8302 24.7102 41.3333 31.4987 41.3333Z" stroke="#070504" stroke-width="4" stroke-linecap="round" stroke-linejoin="round"/>
<path d="M11.7773 53.4407C13.627 49.7975 16.4493 46.7377 19.9315 44.6003C23.4136 42.4629 27.4197 41.3315 31.5055 41.3315C35.5913 41.3315 39.5973 42.4629 43.0795 44.6003C46.5617 46.7377 49.384 49.7975 51.2336 53.4407" stroke="#070504" stroke-width="4" stroke-linecap="round" stroke-linejoin="round"/>
</svg>
