<svg width="52" height="52" viewBox="0 0 52 52" fill="none" xmlns="http://www.w3.org/2000/svg">
<path d="M19.0259 18.6154H32.1541" stroke="#525050" stroke-width="2" stroke-linecap="round" stroke-linejoin="round"/>
<path d="M19.0259 25.1795H32.1541" stroke="#525050" stroke-width="2" stroke-linecap="round" stroke-linejoin="round"/>
<path d="M19.0259 31.7436H32.1541" stroke="#525050" stroke-width="2" stroke-linecap="round" stroke-linejoin="round"/>
<path d="M14.513 19.8462C15.1927 19.8462 15.7438 19.2951 15.7438 18.6154C15.7438 17.9357 15.1927 17.3846 14.513 17.3846C13.8333 17.3846 13.2822 17.9357 13.2822 18.6154C13.2822 19.2951 13.8333 19.8462 14.513 19.8462Z" fill="#525050"/>
<path d="M14.513 26.4103C15.1927 26.4103 15.7438 25.8592 15.7438 25.1795C15.7438 24.4998 15.1927 23.9487 14.513 23.9487C13.8333 23.9487 13.2822 24.4998 13.2822 25.1795C13.2822 25.8592 13.8333 26.4103 14.513 26.4103Z" fill="#525050"/>
<path d="M14.513 32.9744C15.1927 32.9744 15.7438 32.4233 15.7438 31.7436C15.7438 31.0639 15.1927 30.5128 14.513 30.5128C13.8333 30.5128 13.2822 31.0639 13.2822 31.7436C13.2822 32.4233 13.8333 32.9744 14.513 32.9744Z" fill="#525050"/>
<path d="M33.6301 31.4582C35.3639 31.4582 36.7694 30.0527 36.7694 28.3188C36.7694 26.585 35.3639 25.1795 33.6301 25.1795C31.8963 25.1795 30.4907 26.585 30.4907 28.3188C30.4907 30.0527 31.8963 31.4582 33.6301 31.4582Z" stroke="#525050" stroke-width="2" stroke-miterlimit="10"/>
<path d="M28.8721 34.2051C29.3542 33.3698 30.0478 32.6762 30.883 32.1939C31.7182 31.7117 32.6657 31.4578 33.6302 31.4578C34.5946 31.4578 35.5421 31.7117 36.3773 32.1939C37.2125 32.6762 37.9061 33.3698 38.3882 34.2051" stroke="#525050" stroke-width="2" stroke-linecap="round" stroke-linejoin="round"/>
</svg>
